#!OML:ASF X:\für Bonn\!DataBase\2005_08_11_Bastian_Final\c3d\Bastian.ASF
:FULLY-SPECIFIED
:DEGREES
401
root -2.4067 1.30833 21.2266 -993.728 -1.94971 -179.849
lowerback 31.28 3.19179 6.22906
upperback 27.8325 -5.0217 1.80785
thorax 15.446 -7.25061 -2.02291
lowerneck 10.3409 1.78836 -8.17319
upperneck 8.6045 2.23943 8.72042
head 0.776471 1.32496 4.313
rclavicle 1.41137e-014 -3.73715e-014
rhumerus -42.5198 17.3579 -73.1237
rradius 60.3978
rwrist 20.1487
rhand -33.0529 7.09374
rfingers 7.12502
rthumb -6.26528 -22.7936
lclavicle 1.41137e-014 -3.73715e-014
lhumerus -51.0042 -6.64122 72.3669
lradius 59.5351
lwrist 0.28459
lhand -34.4422 -28.3979
lfingers 7.12502
lthumb -7.60642 1.44532
rfemur -8.31353 6.42603 24.8791
rtibia 33.6412
rfoot -6.29139 -19.6537
rtoes -5.76465
lfemur -7.5225 0.449771 -16.7038
ltibia 29.3582
lfoot 11.4859 5.169
ltoes -8.84466
402
root -2.40354 1.30295 21.2341 -994.02 -1.93486 -179.968
lowerback 30.9564 3.11984 6.1777
upperback 27.7252 -4.98872 1.74531
thorax 15.4233 -7.16471 -2.06444
lowerneck 10.4199 1.69402 -8.15118
upperneck 8.81218 2.13227 8.63647
head 0.844007 1.28291 4.28441
rclavicle 1.19271e-015 6.36111e-015
rhumerus -42.5609 17.1302 -73.1024
rradius 60.6211
rwrist 20.2015
rhand -32.6064 6.89113
rfingers 7.12502
rthumb -5.83424 -23.0086
lclavicle 1.19271e-015 6.36111e-015
lhumerus -51.071 -6.95769 72.4384
lradius 59.509
lwrist -0.0491242
lhand -34.0758 -28.5386
lfingers 7.12502
lthumb -7.25269 1.31706
rfemur -7.96165 6.43516 24.932
rtibia 33.5847
rfoot -6.44708 -19.8382
rtoes -5.42651
lfemur -7.10959 0.395721 -16.6936
ltibia 29.1862
lfoot 11.4569 5.02028
ltoes -9.23946
403
root -2.40098 1.29797 21.2413 -994.349 -1.91824 -180.098
lowerback 30.6451 3.05583 6.12883
upperback 27.6335 -4.95786 1.69111
thorax 15.4197 -7.08733 -2.10129
lowerneck 10.528 1.60956 -8.13741
upperneck 8.95111 2.03307 8.53425
head 0.882884 1.24117 4.24932
rclavicle 1.70955e-014 1.03368e-014
rhumerus -42.5892 16.9932 -73.053
rradius 60.8773
rwrist 20.1915
rhand -32.1039 6.7193
rfingers 7.12502
rthumb -5.34905 -23.1932
lclavicle 1.70955e-014 1.03368e-014
lhumerus -51.131 -7.30202 72.5321
lradius 59.4781
lwrist -0.359932
lhand -33.7596 -28.626
lfingers 7.12502
lthumb -6.94751 1.23999
rfemur -7.57004 6.40197 24.9775
rtibia 33.5293
rfoot -6.5775 -19.9399
rtoes -5.20368
lfemur -6.67291 0.328308 -16.679
ltibia 29.0506
lfoot 11.4039 4.94907
ltoes -9.18947
404
root -2.39768 1.29274 21.2491 -994.655 -1.90084 -180.22
lowerback 30.3162 2.99449 6.05903
upperback 27.5308 -4.92337 1.65469
thorax 15.4119 -7.01018 -2.10704
lowerneck 10.6027 1.51752 -8.16323
upperneck 9.1452 1.92415 8.44677
head 0.946381 1.196 4.22905
rclavicle 2.38542e-015 -1.11319e-014
rhumerus -42.5813 16.9073 -72.9588
rradius 61.1117
rwrist 20.2485
rhand -31.5785 6.49197
rfingers 7.12502
rthumb -4.84178 -23.4327
lclavicle 2.38542e-015 -1.11319e-014
lhumerus -51.1777 -7.63387 72.6617
lradius 59.443
lwrist -0.621352
lhand -33.4423 -28.7046
lfingers 7.12502
lthumb -6.64116 1.17125
rfemur -7.20872 6.42441 25.0378
rtibia 33.4731
rfoot -6.66334 -20.1285
rtoes -5.14991
lfemur -6.2771 0.293402 -16.6563
ltibia 28.943
lfoot 11.3618 4.79183
ltoes -9.15791
405
root -2.39535 1.28732 21.255 -994.972 -1.88557 -180.34
lowerback 29.9882 2.93991 5.98838
upperback 27.4407 -4.88964 1.62552
thorax 15.4234 -6.93851 -2.10754
lowerneck 10.6694 1.41402 -8.13646
upperneck 9.28572 1.80304 8.28873
head 0.995491 1.14286 4.17233
rclavicle -9.93923e-016 4.77083e-015
rhumerus -42.569 16.8767 -72.8519
rradius 61.3652
rwrist 20.2478
rhand -31.0742 6.25247
rfingers 7.12502
rthumb -4.35482 -23.6828
lclavicle -9.93923e-016 4.77083e-015
lhumerus -51.1857 -7.95616 72.8098
lradius 59.355
lwrist -0.945838
lhand -33.2608 -28.7125
lfingers 7.12502
lthumb -6.46595 1.16884
rfemur -6.83448 6.37169 25.0756
rtibia 33.4201
rfoot -6.74273 -20.1906
rtoes -5.01898
lfemur -5.88435 0.280756 -16.6431
ltibia 28.8553
lfoot 11.3227 4.55836
ltoes -9.53583
